<?xml version="1.0" encoding="UTF-8" standalone="no" ?>
<!DOCTYPE svg PUBLIC "-//W3C//DTD SVG 1.1//EN" "http://www.w3.org/Graphics/SVG/1.1/DTD/svg11.dtd">
<svg xmlns="http://www.w3.org/2000/svg" xmlns:xlink="http://www.w3.org/1999/xlink" version="1.1" width="1080" height="1080" viewBox="0 0 1080 1080" xml:space="preserve">
<desc>Created with Fabric.js 5.2.4</desc>
<defs>
</defs>
<g transform="matrix(1 0 0 1 540 540)" id="fc52ee15-2981-40ee-a734-1900221a053c"  >
<rect style="stroke: none; stroke-width: 1; stroke-dasharray: none; stroke-linecap: butt; stroke-dashoffset: 0; stroke-linejoin: miter; stroke-miterlimit: 4; fill: rgb(255,255,255); fill-rule: nonzero; opacity: 1; visibility: hidden;" vector-effect="non-scaling-stroke"  x="-540" y="-540" rx="0" ry="0" width="1080" height="1080" />
</g>
<g transform="matrix(1 0 0 1 540 540)" id="10ccd5f7-67ff-457f-8e93-180ea2282d8d"  >
</g>
<g transform="matrix(1 0 0 1 540 540)"  >
<g style="" vector-effect="non-scaling-stroke"   >
		<g transform="matrix(0.13 0 0 -0.13 -127.94 -284.49)"  >
<path style="stroke: none; stroke-width: 1; stroke-dasharray: none; stroke-linecap: butt; stroke-dashoffset: 0; stroke-linejoin: miter; stroke-miterlimit: 4; fill: rgb(255,255,255); fill-rule: nonzero; opacity: 1;" vector-effect="non-scaling-stroke"  transform=" translate(-1600.99, -4693.64)" d="M 1425 5108 C 1337 5077 1273 4979 1283 4890 C 1290 4834 1523 4359 1562 4323 C 1597 4290 1653 4270 1710 4270 C 1825 4270 1920 4366 1920 4484 C 1920 4521 1899 4570 1799 4772 C 1732 4906 1669 5028 1657 5044 C 1615 5103 1501 5134 1425 5108 z" stroke-linecap="round" />
</g>
		<g transform="matrix(0.13 0 0 -0.13 -0.07 -285)"  >
<path style="stroke: none; stroke-width: 1; stroke-dasharray: none; stroke-linecap: butt; stroke-dashoffset: 0; stroke-linejoin: miter; stroke-miterlimit: 4; fill: rgb(255,255,255); fill-rule: nonzero; opacity: 1;" vector-effect="non-scaling-stroke"  transform=" translate(-2560, -4697.45)" d="M 2480 5104 C 2435 5084 2393 5044 2369 4997 C 2350 4962 2349 4940 2352 4681 L 2355 4403 L 2382 4364 C 2397 4343 2426 4314 2447 4300 C 2478 4279 2495 4275 2560 4275 C 2625 4275 2642 4279 2673 4300 C 2694 4314 2723 4343 2738 4364 L 2765 4403 L 2768 4681 C 2771 4940 2770 4962 2751 4997 C 2698 5100 2579 5147 2480 5104 z" stroke-linecap="round" />
</g>
		<g transform="matrix(0.13 0 0 -0.13 127.92 -284.61)"  >
<path style="stroke: none; stroke-width: 1; stroke-dasharray: none; stroke-linecap: butt; stroke-dashoffset: 0; stroke-linejoin: miter; stroke-miterlimit: 4; fill: rgb(255,255,255); fill-rule: nonzero; opacity: 1;" vector-effect="non-scaling-stroke"  transform=" translate(-3519.89, -4694.5)" d="M 3542 5100 C 3519 5090 3488 5068 3474 5053 C 3460 5038 3394 4918 3328 4786 C 3196 4523 3185 4483 3214 4406 C 3232 4359 3293 4296 3336 4280 C 3379 4263 3467 4268 3509 4290 C 3569 4320 3595 4359 3718 4606 C 3806 4784 3834 4849 3838 4889 C 3853 5049 3689 5167 3542 5100 z" stroke-linecap="round" />
</g>
		<g transform="matrix(0.13 0 0 -0.13 0 71.22)"  >
<path style="stroke: none; stroke-width: 1; stroke-dasharray: none; stroke-linecap: butt; stroke-dashoffset: 0; stroke-linejoin: miter; stroke-miterlimit: 4; fill: rgb(255,255,255); fill-rule: nonzero; opacity: 1;" vector-effect="non-scaling-stroke"  transform=" translate(-2560.52, -2025.83)" d="M 1110 4034 C 1080 4026 1017 4001 971 3979 C 869 3928 761 3827 707 3730 C 669 3660 260 2460 232 2335 C 211 2240 212 2019 233 1924 C 298 1636 452 1409 691 1249 L 757 1205 L 658 920 C 604 764 557 634 555 632 C 553 629 484 648 402 674 C 239 724 186 729 125 701 C -15 636 -42 460 73 351 C 105 321 156 303 620 159 C 901 72 1148 0 1169 0 C 1189 0 1230 12 1259 26 C 1388 91 1415 258 1313 362 C 1280 396 1257 407 1130 447 C 1050 472 981 496 976 501 C 968 508 1001 613 1122 956 L 1161 1068 L 1308 1072 C 1414 1076 1478 1083 1537 1099 C 1847 1180 2103 1387 2234 1663 C 2258 1714 2340 1941 2416 2167 C 2493 2394 2557 2580 2560 2580 C 2563 2580 2630 2388 2709 2152 C 2789 1914 2871 1690 2894 1645 C 3029 1381 3271 1185 3565 1103 C 3637 1083 3687 1077 3810 1073 L 3965 1068 L 4061 784 L 4157 500 L 4000 450 C 3853 403 3840 397 3802 356 C 3731 279 3723 186 3781 96 C 3814 42 3890 0 3951 0 C 3971 0 4156 52 4361 115 C 5037 324 5011 315 5052 357 C 5073 378 5096 412 5105 432 C 5160 565 5056 719 4911 720 C 4887 720 4800 699 4718 674 C 4636 649 4567 630 4566 632 C 4564 633 4519 765 4465 924 C 4402 1108 4370 1215 4377 1217 C 4409 1228 4543 1332 4602 1393 C 4847 1641 4954 1999 4885 2342 C 4861 2459 4451 3664 4411 3733 C 4326 3879 4162 3998 3994 4036 C 3845 4069 3784 4059 3275 3916 C 3028 3846 2796 3776 2761 3759 C 2725 3743 2666 3705 2628 3674 L 2560 3619 L 2492 3674 C 2454 3705 2395 3743 2359 3759 C 2302 3786 1761 3943 1462 4021 C 1333 4054 1204 4059 1110 4034 z M 1730 3505 C 1958 3442 2157 3385 2172 3379 C 2212 3363 2277 3288 2289 3244 C 2305 3187 2302 3164 2272 3075 L 2245 2995 L 1573 2992 C 1203 2991 900 2994 900 2998 C 900 3023 1073 3516 1090 3540 C 1130 3595 1213 3633 1280 3625 C 1299 3622 1502 3569 1730 3505 z M 3959 3598 C 3987 3584 4012 3562 4031 3532 C 4054 3496 4220 3026 4220 2997 C 4220 2993 3918 2990 3549 2990 L 2879 2990 L 2864 3025 C 2829 3109 2818 3179 2831 3232 C 2843 3283 2892 3349 2934 3372 C 2945 3378 3153 3439 3395 3506 C 3870 3640 3872 3640 3959 3598 z M 1980 2210 C 1905 1987 1849 1839 1826 1802 C 1756 1686 1619 1576 1487 1530 C 1401 1499 1220 1491 1130 1514 C 951 1559 791 1687 711 1850 C 623 2030 619 2166 695 2401 C 721 2480 744 2548 747 2553 C 749 2557 1055 2560 1425 2560 L 2100 2560 L 1980 2210 z M 4424 2405 C 4473 2258 4474 2252 4474 2135 C 4474 2030 4471 2005 4446 1935 C 4352 1664 4121 1497 3840 1497 C 3660 1497 3509 1561 3380 1692 C 3293 1781 3267 1836 3140 2210 L 3021 2560 L 3697 2558 L 4374 2555 L 4424 2405 z" stroke-linecap="round" />
</g>
</g>
</g>
</svg>