<?xml version="1.0" encoding="UTF-8" standalone="no" ?>
<!DOCTYPE svg PUBLIC "-//W3C//DTD SVG 1.1//EN" "http://www.w3.org/Graphics/SVG/1.1/DTD/svg11.dtd">
<svg xmlns="http://www.w3.org/2000/svg" xmlns:xlink="http://www.w3.org/1999/xlink" version="1.1" width="1080" height="1080" viewBox="0 0 1080 1080" xml:space="preserve">
<desc>Created with Fabric.js 5.2.4</desc>
<defs>
</defs>
<g transform="matrix(1 0 0 1 540 540)" id="1811fa60-0445-45ef-b217-a3544d4b7cb8"  >
<rect style="stroke: none; stroke-width: 1; stroke-dasharray: none; stroke-linecap: butt; stroke-dashoffset: 0; stroke-linejoin: miter; stroke-miterlimit: 4; fill: rgb(255,255,255); fill-rule: nonzero; opacity: 1; visibility: hidden;" vector-effect="non-scaling-stroke"  x="-540" y="-540" rx="0" ry="0" width="1080" height="1080" />
</g>
<g transform="matrix(1 0 0 1 540 540)" id="e019edc3-2cb6-4417-90bf-c0b110ddffc8"  >
</g>
<g transform="matrix(1 0 0 1 540 540)"  >
<g style="" vector-effect="non-scaling-stroke"   >
		<g transform="matrix(0.13 0 0 -0.13 -69.99 -14.28)"  >
<path style="stroke: none; stroke-width: 1; stroke-dasharray: none; stroke-linecap: butt; stroke-dashoffset: 0; stroke-linejoin: miter; stroke-miterlimit: 4; fill: rgb(255,255,255); fill-rule: nonzero; opacity: 1;" vector-effect="non-scaling-stroke"  transform=" translate(-2034.84, -2561.5)" d="M 1995 4899 C 1316 4846 721 4378 511 3730 C 454 3555 439 3461 433 3255 C 428 3091 431 3048 449 2941 C 473 2800 530 2620 588 2501 L 628 2420 L 566 2386 C 227 2195 0 1795 0 1391 C 0 1176 66 968 197 771 C 351 539 584 363 852 276 C 1038 215 1042 215 1755 215 L 2405 215 L 2452 243 C 2565 309 2592 462 2509 563 C 2447 638 2482 634 1745 640 C 1095 646 1084 646 1010 669 C 735 752 520 968 445 1237 C 419 1329 428 1507 463 1615 C 521 1792 647 1942 824 2045 C 905 2091 957 2146 997 2228 C 1031 2296 1035 2312 1038 2400 C 1043 2506 1049 2483 943 2735 C 906 2822 875 2939 859 3049 C 845 3152 852 3367 874 3468 C 958 3857 1207 4180 1557 4355 C 1729 4441 1879 4478 2080 4486 C 2642 4509 3142 4169 3334 3635 C 3410 3422 3486 3313 3618 3227 C 3742 3146 3837 3118 3914 3140 C 4030 3172 4097 3297 4059 3411 C 4037 3475 4002 3509 3914 3551 C 3813 3599 3793 3623 3746 3753 C 3508 4411 2955 4839 2264 4899 C 2135 4911 2140 4911 1995 4899 z" stroke-linecap="round" />
</g>
		<g transform="matrix(0.13 0 0 -0.13 142.18 128.19)"  >
<path style="stroke: none; stroke-width: 1; stroke-dasharray: none; stroke-linecap: butt; stroke-dashoffset: 0; stroke-linejoin: miter; stroke-miterlimit: 4; fill: rgb(255,255,255); fill-rule: nonzero; opacity: 1;" vector-effect="non-scaling-stroke"  transform=" translate(-3626.09, -1493.04)" d="M 4395 2981 C 4171 2945 4000 2820 3905 2625 C 3864 2540 3836 2409 3842 2328 L 3846 2268 L 3538 2114 C 3369 2029 3225 1960 3219 1960 C 3213 1960 3190 1975 3169 1994 C 3035 2108 2807 2158 2622 2115 C 2383 2058 2192 1857 2144 1611 C 2100 1385 2186 1149 2370 997 C 2425 951 2556 887 2630 869 C 2705 851 2852 853 2928 873 C 3007 894 3100 940 3167 991 L 3218 1031 L 3532 874 L 3846 717 L 3842 651 C 3833 490 3905 315 4031 189 C 4280 -62 4678 -62 4930 190 C 5182 442 5183 839 4931 1090 C 4701 1320 4342 1342 4085 1142 L 4035 1103 L 3723 1259 L 3410 1415 L 3410 1495 L 3410 1575 L 3723 1731 L 4035 1888 L 4075 1854 C 4171 1771 4344 1710 4480 1710 C 4694 1710 4913 1833 5022 2015 C 5085 2119 5113 2219 5113 2340 C 5114 2529 5060 2661 4925 2796 C 4860 2862 4829 2885 4760 2917 C 4713 2940 4655 2962 4630 2968 C 4563 2984 4452 2990 4395 2981 z M 4543 2549 C 4634 2524 4696 2427 4688 2325 C 4672 2131 4419 2067 4306 2228 C 4266 2285 4258 2377 4288 2436 C 4340 2536 4436 2579 4543 2549 z M 2828 1698 C 2894 1682 2963 1611 2979 1544 C 3003 1446 2959 1351 2869 1306 C 2781 1263 2693 1276 2625 1345 C 2557 1413 2543 1501 2585 1587 C 2613 1642 2668 1687 2722 1700 C 2769 1711 2776 1711 2828 1698 z M 4594 820 C 4614 806 4643 777 4658 756 C 4682 721 4685 707 4685 640 C 4685 573 4682 559 4658 524 C 4643 503 4614 474 4593 460 C 4562 439 4545 435 4480 435 C 4415 435 4398 439 4367 460 C 4286 515 4249 621 4279 713 C 4293 754 4351 817 4394 836 C 4444 859 4549 850 4594 820 z" stroke-linecap="round" />
</g>
</g>
</g>
</svg>