<?xml version="1.0" standalone="no"?>
<!DOCTYPE svg PUBLIC "-//W3C//DTD SVG 20010904//EN"
 "http://www.w3.org/TR/2001/REC-SVG-20010904/DTD/svg10.dtd">
<svg version="1.0" xmlns="http://www.w3.org/2000/svg"
 width="512.000000pt" height="512.000000pt" viewBox="0 0 512.000000 512.000000"
 preserveAspectRatio="xMidYMid meet">

<g transform="translate(0.000000,512.000000) scale(0.100000,-0.100000)"
fill="#000000" stroke="none">
<path d="M703 4414 c-87 -98 -221 -281 -290 -396 -213 -357 -337 -715 -395
-1138 -19 -142 -16 -588 6 -775 104 -897 457 -1543 907 -1660 47 -13 90 -16
162 -13 90 5 104 8 183 47 229 114 427 429 566 900 l33 111 685 0 685 0 33
-111 c139 -471 336 -786 565 -899 80 -40 94 -43 184 -48 72 -3 115 0 163 13
511 133 895 958 927 1990 12 389 -44 742 -172 1092 -47 127 -188 413 -260 528
-68 107 -203 287 -275 368 l-52 57 -1798 0 -1799 0 -58 -66z m3539 -441 c222
-309 358 -646 425 -1048 25 -153 25 -632 0 -815 -47 -338 -128 -623 -244 -854
-140 -282 -304 -442 -401 -392 -68 35 -153 163 -232 350 -75 176 -133 376
-197 679 l-5 27 -1028 0 -1027 0 -6 -27 c-85 -401 -177 -679 -287 -865 -80
-134 -143 -186 -205 -169 -199 55 -437 499 -540 1006 -50 246 -59 351 -60 660
0 260 3 302 23 410 75 397 218 733 440 1037 l57 77 1616 1 1616 0 55 -77z"/>
<path d="M1280 3415 l0 -215 -215 0 -215 0 2 -212 3 -213 213 -3 212 -2 0
-210 0 -210 215 0 215 0 0 210 0 210 210 0 210 0 0 215 0 215 -210 0 -210 0
-2 213 -3 212 -212 3 -213 2 0 -215z"/>
<path d="M3869 3616 c-145 -39 -239 -160 -239 -309 0 -82 25 -149 79 -209 62
-69 127 -100 221 -106 60 -3 86 0 132 18 165 62 249 263 177 420 -48 103 -112
158 -216 185 -67 18 -92 18 -154 1z"/>
<path d="M3229 2976 c-145 -39 -239 -160 -239 -309 0 -82 25 -149 79 -209 62
-69 127 -100 221 -106 60 -3 86 0 132 18 165 62 249 263 177 420 -48 103 -112
158 -216 185 -67 18 -92 18 -154 1z"/>
</g>
</svg>
