<?xml version="1.0" encoding="UTF-8" standalone="no" ?>
<!DOCTYPE svg PUBLIC "-//W3C//DTD SVG 1.1//EN" "http://www.w3.org/Graphics/SVG/1.1/DTD/svg11.dtd">
<svg xmlns="http://www.w3.org/2000/svg" xmlns:xlink="http://www.w3.org/1999/xlink" version="1.1" width="1080" height="1080" viewBox="0 0 1080 1080" xml:space="preserve">
<desc>Created with Fabric.js 5.2.4</desc>
<defs>
</defs>
<g transform="matrix(1 0 0 1 540 540)" id="952f6aa2-fd18-4e71-b09b-7a2106205d13"  >
<rect style="stroke: none; stroke-width: 1; stroke-dasharray: none; stroke-linecap: butt; stroke-dashoffset: 0; stroke-linejoin: miter; stroke-miterlimit: 4; fill: rgb(255,255,255); fill-rule: nonzero; opacity: 1; visibility: hidden;" vector-effect="non-scaling-stroke"  x="-540" y="-540" rx="0" ry="0" width="1080" height="1080" />
</g>
<g transform="matrix(1 0 0 1 540 540)" id="9c0e7255-4074-44ed-8cff-7940cbae9644"  >
</g>
<g transform="matrix(1 0 0 1 540 540)"  >
<g style="" vector-effect="non-scaling-stroke"   >
		<g transform="matrix(0.13 0 0 -0.13 0 0)"  >
<path style="stroke: none; stroke-width: 1; stroke-dasharray: none; stroke-linecap: butt; stroke-dashoffset: 0; stroke-linejoin: miter; stroke-miterlimit: 4; fill: rgb(255,255,255); fill-rule: nonzero; opacity: 1;" vector-effect="non-scaling-stroke"  transform=" translate(-2562.01, -2455.47)" d="M 703 4414 C 616 4316 482 4133 413 4018 C 200 3661 76 3303 18 2880 C -1 2738 2 2292 24 2105 C 128 1208 481 562 931 445 C 978 432 1021 429 1093 432 C 1183 437 1197 440 1276 479 C 1505 593 1703 908 1842 1379 L 1875 1490 L 2560 1490 L 3245 1490 L 3278 1379 C 3417 908 3614 593 3843 480 C 3923 440 3937 437 4027 432 C 4099 429 4142 432 4190 445 C 4701 578 5085 1403 5117 2435 C 5129 2824 5073 3177 4945 3527 C 4898 3654 4757 3940 4685 4055 C 4617 4162 4482 4342 4410 4423 L 4358 4480 L 2560 4480 L 761 4480 L 703 4414 z M 4242 3973 C 4464 3664 4600 3327 4667 2925 C 4692 2772 4692 2293 4667 2110 C 4620 1772 4539 1487 4423 1256 C 4283 974 4119 814 4022 864 C 3954 899 3869 1027 3790 1214 C 3715 1390 3657 1590 3593 1893 L 3588 1920 L 2560 1920 L 1533 1920 L 1527 1893 C 1442 1492 1350 1214 1240 1028 C 1160 894 1097 842 1035 859 C 836 914 598 1358 495 1865 C 445 2111 436 2216 435 2525 C 435 2785 438 2827 458 2935 C 533 3332 676 3668 898 3972 L 955 4049 L 2571 4050 L 4187 4050 L 4242 3973 z" stroke-linecap="round" />
</g>
		<g transform="matrix(0.13 0 0 -0.13 -142.94 -71.27)"  >
<path style="stroke: none; stroke-width: 1; stroke-dasharray: none; stroke-linecap: butt; stroke-dashoffset: 0; stroke-linejoin: miter; stroke-miterlimit: 4; fill: rgb(255,255,255); fill-rule: nonzero; opacity: 1;" vector-effect="non-scaling-stroke"  transform=" translate(-1490, -2990)" d="M 1280 3415 L 1280 3200 L 1065 3200 L 850 3200 L 852 2988 L 855 2775 L 1068 2772 L 1280 2770 L 1280 2560 L 1280 2350 L 1495 2350 L 1710 2350 L 1710 2560 L 1710 2770 L 1920 2770 L 2130 2770 L 2130 2985 L 2130 3200 L 1920 3200 L 1710 3200 L 1708 3413 L 1705 3625 L 1493 3628 L 1280 3630 L 1280 3415 z" stroke-linecap="round" />
</g>
		<g transform="matrix(0.13 0 0 -0.13 184.73 -113.91)"  >
<path style="stroke: none; stroke-width: 1; stroke-dasharray: none; stroke-linecap: butt; stroke-dashoffset: 0; stroke-linejoin: miter; stroke-miterlimit: 4; fill: rgb(255,255,255); fill-rule: nonzero; opacity: 1;" vector-effect="non-scaling-stroke"  transform=" translate(-3947.47, -3309.81)" d="M 3869 3616 C 3724 3577 3630 3456 3630 3307 C 3630 3225 3655 3158 3709 3098 C 3771 3029 3836 2998 3930 2992 C 3990 2989 4016 2992 4062 3010 C 4227 3072 4311 3273 4239 3430 C 4191 3533 4127 3588 4023 3615 C 3956 3633 3931 3633 3869 3616 z" stroke-linecap="round" />
</g>
		<g transform="matrix(0.13 0 0 -0.13 99.39 -28.58)"  >
<path style="stroke: none; stroke-width: 1; stroke-dasharray: none; stroke-linecap: butt; stroke-dashoffset: 0; stroke-linejoin: miter; stroke-miterlimit: 4; fill: rgb(255,255,255); fill-rule: nonzero; opacity: 1;" vector-effect="non-scaling-stroke"  transform=" translate(-3307.47, -2669.81)" d="M 3229 2976 C 3084 2937 2990 2816 2990 2667 C 2990 2585 3015 2518 3069 2458 C 3131 2389 3196 2358 3290 2352 C 3350 2349 3376 2352 3422 2370 C 3587 2432 3671 2633 3599 2790 C 3551 2893 3487 2948 3383 2975 C 3316 2993 3291 2993 3229 2976 z" stroke-linecap="round" />
</g>
</g>
</g>
</svg>