<?xml version="1.0" encoding="UTF-8" standalone="no" ?>
<!DOCTYPE svg PUBLIC "-//W3C//DTD SVG 1.1//EN" "http://www.w3.org/Graphics/SVG/1.1/DTD/svg11.dtd">
<svg xmlns="http://www.w3.org/2000/svg" xmlns:xlink="http://www.w3.org/1999/xlink" version="1.1" width="1080" height="1080" viewBox="0 0 1080 1080" xml:space="preserve">
<desc>Created with Fabric.js 5.2.4</desc>
<defs>
</defs>
<rect x="0" y="0" width="100%" height="100%" fill="transparent"></rect>
<g transform="matrix(1 0 0 1 540 540)" id="80909ecf-ba9a-4a16-84f2-18d4d0ba274c"  >
<rect style="stroke: none; stroke-width: 1; stroke-dasharray: none; stroke-linecap: butt; stroke-dashoffset: 0; stroke-linejoin: miter; stroke-miterlimit: 4; fill: rgb(255,255,255); fill-rule: nonzero; opacity: 1; visibility: hidden;" vector-effect="non-scaling-stroke"  x="-540" y="-540" rx="0" ry="0" width="1080" height="1080" />
</g>
<g transform="matrix(1 0 0 1 540 540)" id="ed0c5858-e47f-4ba8-8102-6c69e85ea809"  >
</g>
<g transform="matrix(1 0 0 1 540 540)"  >
<g style="" vector-effect="non-scaling-stroke"   >
		<g transform="matrix(0.13 0 0 -0.13 -12.83 -170.68)"  >
<path style="stroke: none; stroke-width: 1; stroke-dasharray: none; stroke-linecap: butt; stroke-dashoffset: 0; stroke-linejoin: miter; stroke-miterlimit: 4; fill: rgb(255,255,255); fill-rule: nonzero; opacity: 1;" vector-effect="non-scaling-stroke"  transform=" translate(-2464.22, -3840.62)" d="M 2325 5110 C 1708 5044 1176 4794 756 4374 C 380 3999 127 3513 42 3004 C 12 2828 36 2731 130 2646 C 197 2586 252 2565 345 2565 C 418 2565 431 2569 490 2601 C 602 2662 639 2728 675 2930 C 712 3136 825 3419 940 3595 C 1089 3821 1277 4013 1498 4162 C 1701 4299 1977 4409 2235 4455 C 2358 4478 2630 4486 2760 4471 C 2986 4445 3208 4381 3406 4284 C 3518 4230 3692 4119 3765 4056 L 3805 4022 L 3668 3883 C 3522 3735 3500 3701 3500 3623 C 3501 3532 3566 3443 3650 3420 C 3671 3414 3899 3410 4206 3410 L 4726 3410 L 4781 3438 C 4839 3467 4874 3509 4890 3571 C 4897 3596 4900 3795 4898 4132 L 4895 4655 L 4870 4700 C 4821 4787 4722 4827 4623 4800 C 4581 4788 4554 4766 4419 4633 C 4334 4549 4261 4480 4257 4480 C 4253 4480 4217 4507 4177 4541 C 4061 4639 3850 4775 3691 4854 C 3450 4973 3218 5046 2940 5091 C 2798 5113 2456 5124 2325 5110 z" stroke-linecap="round" />
</g>
		<g transform="matrix(0.13 0 0 -0.13 13.01 170.62)"  >
<path style="stroke: none; stroke-width: 1; stroke-dasharray: none; stroke-linecap: butt; stroke-dashoffset: 0; stroke-linejoin: miter; stroke-miterlimit: 4; fill: rgb(255,255,255); fill-rule: nonzero; opacity: 1;" vector-effect="non-scaling-stroke"  transform=" translate(-2658, -1280.84)" d="M 4680 2544 C 4561 2501 4489 2414 4464 2284 C 4372 1805 4205 1481 3893 1179 C 3220 526 2170 457 1418 1017 C 1364 1057 1320 1093 1320 1097 C 1320 1101 1382 1167 1458 1244 C 1604 1393 1620 1420 1620 1506 C 1619 1588 1551 1678 1473 1699 C 1418 1715 414 1714 369 1699 C 318 1681 272 1644 247 1597 L 225 1555 L 225 1010 L 225 465 L 247 423 C 284 355 360 310 439 310 C 508 311 559 345 710 496 C 790 575 859 640 863 640 C 867 640 903 612 943 579 C 1122 427 1441 245 1681 156 C 1819 105 2024 53 2185 28 C 2386 -3 2745 -3 2939 28 C 3505 120 3977 359 4368 750 C 4613 995 4805 1287 4935 1610 C 5021 1824 5091 2106 5091 2242 C 5092 2366 5016 2482 4902 2532 C 4840 2560 4739 2565 4680 2544 z" stroke-linecap="round" />
</g>
</g>
</g>
</svg>